<svg width="38" height="26" viewBox="0 0 38 26" fill="none" xmlns="http://www.w3.org/2000/svg">
<path d="M15.136 9.688C15.136 8.312 14.736 7.24 13.936 6.472C13.168 5.704 12.144 5.32 10.864 5.32C9.68 5.32 8.64 5.624 7.744 6.232C6.848 6.84 6.192 7.848 5.776 9.256L0.16 7.528C0.704 5.416 1.888 3.72 3.712 2.44C5.568 1.16 8.048 0.519998 11.152 0.519998C13.264 0.519998 15.104 0.855998 16.672 1.528C18.24 2.168 19.456 3.144 20.32 4.456C21.216 5.768 21.664 7.416 21.664 9.4V19.144C21.664 20.36 22.24 20.968 23.392 20.968C23.936 20.968 24.448 20.888 24.928 20.728L24.544 24.808C23.712 25.224 22.672 25.432 21.424 25.432C20.304 25.432 19.296 25.24 18.4 24.856C17.504 24.472 16.8 23.896 16.288 23.128C15.776 22.328 15.52 21.336 15.52 20.152V19.96L16.672 19.768C16.48 20.984 15.952 22.024 15.088 22.888C14.224 23.72 13.168 24.36 11.92 24.808C10.704 25.256 9.44 25.48 8.128 25.48C6.496 25.48 5.088 25.24 3.904 24.76C2.72 24.248 1.808 23.512 1.168 22.552C0.528 21.592 0.208 20.408 0.208 19C0.208 17.208 0.784 15.752 1.936 14.632C3.088 13.48 4.736 12.696 6.88 12.28L15.904 10.456L15.856 14.536L10.096 15.688C9.008 15.912 8.176 16.216 7.6 16.6C7.056 16.952 6.784 17.544 6.784 18.376C6.784 19.176 7.072 19.784 7.648 20.2C8.256 20.616 8.976 20.824 9.808 20.824C10.48 20.824 11.136 20.744 11.776 20.584C12.416 20.424 12.992 20.168 13.504 19.816C14.016 19.464 14.416 18.984 14.704 18.376C14.992 17.768 15.136 17.032 15.136 16.168V9.688ZM32.893 17.656C34.173 17.656 35.181 18.008 35.917 18.712C36.685 19.416 37.069 20.36 37.069 21.544C37.069 22.76 36.685 23.72 35.917 24.424C35.181 25.096 34.173 25.432 32.893 25.432C31.613 25.432 30.589 25.096 29.821 24.424C29.085 23.72 28.717 22.76 28.717 21.544C28.717 20.36 29.085 19.416 29.821 18.712C30.589 18.008 31.613 17.656 32.893 17.656Z" fill="black"/>
</svg>
